<?xml version="1.0" encoding="utf-8"?>
<!-- Generator: Adobe Illustrator 22.0.0, SVG Export Plug-In . SVG Version: 6.00 Build 0)  -->
<svg version="1.1" id="Layer_1" xmlns="http://www.w3.org/2000/svg" xmlns:xlink="http://www.w3.org/1999/xlink" x="0px" y="0px"
	 viewBox="0 0 190 140" style="enable-background:new 0 0 190 140;" xml:space="preserve">
<style type="text/css">
	.st0{fill:none;}
	.st1{fill:none;stroke:#003e9f;stroke-width:0.7;stroke-linecap:round;stroke-linejoin:round;stroke-miterlimit:10;}
	.st2{fill:#003e9f;}
	.st3{fill:#CCCBCB;}
</style>
<g>
	<g>
		<path class="st2" d="M168.286,80.6237H24.3842c-0.687,0-1.2439-0.5552-1.2439-1.2422c0-0.687,0.5569-1.2422,1.2439-1.2422H168.286
			c0.687,0,1.2422,0.5552,1.2422,1.2422C169.5282,80.0685,168.973,80.6237,168.286,80.6237z"/>
	</g>
	<path class="st2" d="M146.9779,85.6341c-0.687,0-1.2422,0.5552-1.2422,1.2422v12.0715l-49.4899,25.9204V86.6542
		c0-0.687-0.5569-1.2422-1.2439-1.2422s-1.2439,0.5552-1.2439,1.2422v38.2139L44.2714,98.9478V86.8763
		c0-0.687-0.5569-1.2422-1.2439-1.2422c-0.687,0-1.2439,0.5552-1.2439,1.2422v12.8244c0,0.4615,0.2568,0.8883,0.6662,1.0999
		l51.9743,27.2241c0.0134,0.0072,0.0291,0.0039,0.0427,0.0104c0.1635,0.0789,0.3411,0.1319,0.535,0.1319s0.3715-0.0529,0.535-0.1319
		c0.0137-0.0065,0.0293-0.0033,0.0427-0.0104l51.9743-27.2241c0.4094-0.2117,0.6662-0.6384,0.6662-1.0999V86.8763
		C148.2201,86.1893,147.6649,85.6341,146.9779,85.6341z"/>
	<g>
		<path class="st3" d="M96.0306,64.5307l-1.0232,0.5144l-1.0258-0.5213c-0.6176-0.3088-1.3636-0.0659-1.6724,0.5482
			c-0.3105,0.6107-0.0677,1.3602,0.5448,1.6724l0.9039,0.4593v1.0119c0,0.687,0.5569,1.2422,1.2439,1.2422
			s1.2439-0.5552,1.2439-1.2422v-1.0108l0.9022-0.4535c0.6142-0.3088,0.8605-1.0548,0.5517-1.669
			C97.3925,64.4683,96.6378,64.215,96.0306,64.5307z"/>
		<path class="st3" d="M137.8592,43.4967l-3.4872,1.7523c-0.6142,0.3088-0.8605,1.0548-0.5517,1.669
			c0.2186,0.4337,0.6558,0.6836,1.1103,0.6836c0.1874,0,0.3782-0.0416,0.5586-0.1319l3.4872-1.7523
			c0.6142-0.3088,0.8605-1.0548,0.5517-1.669C139.2194,43.4343,138.4768,43.1844,137.8592,43.4967z"/>
		<path class="st3" d="M127.4012,48.7535l-3.4854,1.7557c-0.6142,0.3088-0.8605,1.0548-0.5517,1.669
			c0.2186,0.4337,0.6558,0.6836,1.1121,0.6836c0.1874,0,0.3782-0.0416,0.5569-0.1319l3.4854-1.7557
			c0.6142-0.3088,0.8605-1.0548,0.5517-1.669C128.7596,48.691,128.0101,48.4412,127.4012,48.7535z"/>
		<path class="st3" d="M116.9449,54.0137l-3.4854,1.7523c-0.6142,0.3088-0.8605,1.0548-0.5517,1.669
			c0.2169,0.4337,0.6558,0.6836,1.1121,0.6836c0.1874,0,0.3782-0.0416,0.5569-0.1319l3.4854-1.7523
			c0.6142-0.3088,0.8605-1.0548,0.5517-1.669C118.3051,53.9547,117.5573,53.7049,116.9449,54.0137z"/>
		<path class="st3" d="M106.4869,59.2739l-3.4854,1.7523c-0.6142,0.3088-0.8605,1.0548-0.5517,1.669
			c0.2169,0.4337,0.6558,0.6836,1.1121,0.6836c0.1874,0,0.3782-0.0416,0.5569-0.1319l3.4854-1.7523
			c0.6142-0.3088,0.8605-1.0548,0.5517-1.669C107.8505,59.2115,107.0976,58.9617,106.4869,59.2739z"/>
		<path class="st3" d="M148.0882,39.7424c-0.0096-0.0189-0.0271-0.0295-0.0373-0.0477c-0.0221-0.0392-0.0542-0.0664-0.0805-0.103
			c-0.0993-0.1388-0.2177-0.2498-0.3574-0.3351c-0.0238-0.0145-0.0343-0.0427-0.0592-0.0555l-1.5753-0.8258
			c-0.6037-0.3192-1.3567-0.0867-1.6759,0.5239c-0.2429,0.4621-0.1629,1.0062,0.1568,1.3801
			c-0.3259,0.3695-0.4164,0.9106-0.1811,1.3784c0.2186,0.4337,0.6558,0.6836,1.1103,0.6836c0.1282,0,0.255-0.0492,0.3819-0.0902
			c0.0874,0.6009,0.5818,1.0687,1.2073,1.0687c0.687,0,1.2422-0.5552,1.2422-1.2422V40.301c0-0.0104-0.0078-0.0187-0.008-0.0291
			C148.2079,40.093,148.1741,39.9133,148.0882,39.7424z"/>
		<path class="st3" d="M45.7704,39.9991l-0.051-0.026c0.1496-0.3353,0.1674-0.7252-0.0167-1.0774
			c-0.3158-0.6037-1.0687-0.8397-1.6794-0.5205l-1.5736,0.8258c-0.4094,0.2151-0.6662,0.6384-0.6662,1.0999v1.7765
			c0,0.687,0.5569,1.2422,1.2439,1.2422c0.687,0,1.2439-0.5552,1.2439-1.2422V42.024l0.3713,0.1889
			c0.1804,0.0937,0.373,0.1353,0.5621,0.1353c0.4545,0,0.89-0.2464,1.1103-0.6766C46.6257,41.0574,46.3828,40.308,45.7704,39.9991z"
			/>
		<path class="st3" d="M56.1018,45.2559l-3.4438-1.7523c-0.6176-0.3192-1.3602-0.0694-1.6725,0.5413
			c-0.3105,0.6142-0.0677,1.3636,0.5448,1.6725l3.4438,1.7523c0.1804,0.0937,0.373,0.1353,0.5621,0.1353
			c0.4545,0,0.89-0.2464,1.1103-0.6766C56.9571,46.3142,56.7142,45.5647,56.1018,45.2559z"/>
		<path class="st3" d="M66.4331,50.5127l-3.4438-1.7523c-0.6159-0.3227-1.3619-0.0694-1.6724,0.5413
			c-0.3106,0.6142-0.0677,1.3636,0.5448,1.6724l3.4438,1.7523c0.1804,0.0937,0.373,0.1353,0.5621,0.1353
			c0.4545,0,0.89-0.2464,1.1103-0.6766C67.2884,51.571,67.0456,50.8215,66.4331,50.5127z"/>
		<path class="st3" d="M76.7645,55.766l-3.4438-1.7523c-0.6194-0.3192-1.3619-0.0694-1.6724,0.5413
			c-0.3105,0.6142-0.0677,1.3636,0.5448,1.6724l3.4438,1.7523c0.1804,0.0937,0.373,0.1353,0.5621,0.1353
			c0.4545,0,0.89-0.2464,1.1103-0.6766C77.6198,56.8243,77.3769,56.0748,76.7645,55.766z"/>
		<path class="st3" d="M87.0959,61.0227l-3.4438-1.7523c-0.6159-0.3227-1.3619-0.0694-1.6724,0.5413
			c-0.3106,0.6142-0.0677,1.3636,0.5448,1.6725l3.4438,1.7523c0.1804,0.0937,0.373,0.1353,0.5621,0.1353
			c0.4545,0,0.89-0.2464,1.1103-0.6766C87.9512,62.081,87.7083,61.3315,87.0959,61.0227z"/>
		<path class="st3" d="M43.0275,67.1157c-0.687,0-1.2439,0.5552-1.2439,1.2422v3.2824c0,0.687,0.5569,1.2422,1.2439,1.2422
			c0.687,0,1.2439-0.5552,1.2439-1.2422v-3.2824C44.2714,67.6709,43.7145,67.1157,43.0275,67.1157z"/>
		<path class="st3" d="M43.0275,57.258c-0.687,0-1.2439,0.5552-1.2439,1.2422v3.2859c0,0.687,0.5569,1.2422,1.2439,1.2422
			c0.687,0,1.2439-0.5552,1.2439-1.2422v-3.2859C44.2714,57.8132,43.7145,57.258,43.0275,57.258z"/>
		<path class="st3" d="M43.0275,47.4037c-0.687,0-1.2439,0.5552-1.2439,1.2422v3.2859c0,0.687,0.5569,1.2422,1.2439,1.2422
			c0.687,0,1.2439-0.5552,1.2439-1.2422v-3.2859C44.2714,47.9589,43.7145,47.4037,43.0275,47.4037z"/>
		<path class="st3" d="M78.4907,20.3218l-2.873,1.5059c-0.6072,0.3158-0.8432,1.0687-0.5239,1.6759
			c0.2221,0.4268,0.6558,0.6662,1.1034,0.6662c0.1943,0,0.3921-0.0451,0.576-0.1423l2.873-1.5059
			c0.6072-0.3158,0.8432-1.0687,0.5239-1.6759C79.8509,20.2351,79.1031,20.0026,78.4907,20.3218z"/>
		<path class="st3" d="M87.1063,15.8076l-2.8713,1.5059c-0.609,0.3192-0.8432,1.0687-0.5239,1.6759
			c0.2221,0.4268,0.6558,0.6662,1.1034,0.6662c0.1943,0,0.3921-0.0451,0.576-0.1423l2.8713-1.5059
			c0.609-0.3192,0.8432-1.0687,0.5239-1.6759C88.4699,15.7209,87.717,15.4884,87.1063,15.8076z"/>
		<path class="st3" d="M71.5528,25.36c-0.3192-0.6072-1.0687-0.8397-1.6777-0.5274l-2.873,1.5024
			c-0.6089,0.3192-0.8449,1.0722-0.5257,1.6794c0.2221,0.4233,0.6541,0.6662,1.1034,0.6662c0.1943,0,0.3904-0.0451,0.5742-0.1388
			l2.873-1.5024C71.6361,26.7202,71.8721,25.9672,71.5528,25.36z"/>
		<path class="st3" d="M53.7961,36.0609c0.6072-0.3158,0.8432-1.0687,0.5239-1.6759c-0.3175-0.6142-1.067-0.8432-1.6794-0.5239
			l-2.873,1.5059c-0.6072,0.3158-0.8432,1.0687-0.5239,1.6759c0.2221,0.4268,0.6558,0.6662,1.1034,0.6662
			c0.1943,0,0.3921-0.0451,0.576-0.1423L53.7961,36.0609z"/>
		<path class="st3" d="M62.9356,29.8742c-0.3175-0.6107-1.0704-0.8362-1.6777-0.5274l-2.8713,1.5024
			c-0.609,0.3192-0.8449,1.0722-0.5257,1.6794c0.2221,0.4233,0.6541,0.6662,1.1034,0.6662c0.1943,0,0.3904-0.0451,0.5743-0.1388
			l2.8713-1.5024C63.0188,31.2344,63.2548,30.4814,62.9356,29.8742z"/>
		<path class="st3" d="M94.0043,15.0026l0.9976-0.5239l0.9976,0.5239c0.1839,0.0937,0.3817,0.1388,0.5742,0.1388
			c0.4493,0,0.8813-0.2429,1.1034-0.6662c0.3192-0.6072,0.0833-1.3602-0.5257-1.6794l-1.5736-0.8223
			c-0.3609-0.1874-0.7911-0.1874-1.152,0l-1.5736,0.8223c-0.6089,0.3192-0.8449,1.0722-0.5257,1.6794
			C92.6441,15.0789,93.3901,15.3184,94.0043,15.0026z"/>
		<path class="st3" d="M123.0032,26.342l-2.873-1.5059c-0.6038-0.3158-1.3619-0.0867-1.6794,0.5239
			c-0.3192,0.6072-0.0833,1.3602,0.5239,1.6759l2.873,1.5059c0.1839,0.0972,0.3817,0.1423,0.576,0.1423
			c0.4476,0,0.8813-0.2394,1.1034-0.6662C123.8464,27.4107,123.6104,26.6577,123.0032,26.342z"/>
		<path class="st3" d="M113.8065,24.1699c0.4476,0,0.8813-0.2394,1.1034-0.6662c0.3192-0.6072,0.085-1.3567-0.5239-1.6759
			l-2.8713-1.5059c-0.6037-0.3192-1.3584-0.0867-1.6794,0.5239c-0.3192,0.6072-0.085,1.3567,0.5239,1.6759l2.8713,1.5059
			C113.4144,24.1247,113.6122,24.1699,113.8065,24.1699z"/>
		<path class="st3" d="M140.2326,35.3635l-2.8695-1.5024c-0.6038-0.3088-1.3532-0.0833-1.6794,0.5274
			c-0.3158,0.6072-0.0833,1.3602,0.5274,1.6794l2.8695,1.5024c0.1839,0.0937,0.3817,0.1388,0.576,0.1388
			c0.4476,0,0.8779-0.2394,1.1034-0.6662C141.0757,36.4356,140.8432,35.6827,140.2326,35.3635z"/>
		<path class="st3" d="M131.617,30.8492l-2.8713-1.5024c-0.609-0.3088-1.3602-0.0763-1.6777,0.5274
			c-0.3192,0.6072-0.0833,1.3602,0.5257,1.6794l2.8713,1.5024c0.1839,0.0937,0.3799,0.1388,0.5742,0.1388
			c0.4493,0,0.8813-0.2429,1.1034-0.6662C132.4602,31.9214,132.226,31.1685,131.617,30.8492z"/>
		<path class="st3" d="M105.1909,19.6556c0.4476,0,0.8813-0.2394,1.1034-0.6662c0.3192-0.6072,0.0833-1.3602-0.5239-1.6759
			l-2.873-1.5059c-0.6055-0.3192-1.3602-0.0867-1.6794,0.5239c-0.3192,0.6072-0.0833,1.3602,0.5239,1.6759l2.873,1.5059
			C104.7988,19.6105,104.9966,19.6556,105.1909,19.6556z"/>
		<path class="st3" d="M146.9779,67.1157c-0.687,0-1.2422,0.5552-1.2422,1.2422v3.2824c0,0.687,0.5552,1.2422,1.2422,1.2422
			c0.687,0,1.2422-0.5552,1.2422-1.2422v-3.2824C148.2201,67.6709,147.6649,67.1157,146.9779,67.1157z"/>
		<path class="st3" d="M146.9779,57.258c-0.687,0-1.2422,0.5552-1.2422,1.2422v3.2859c0,0.687,0.5552,1.2422,1.2422,1.2422
			c0.687,0,1.2422-0.5552,1.2422-1.2422v-3.2859C148.2201,57.8132,147.6649,57.258,146.9779,57.258z"/>
		<path class="st3" d="M146.9779,47.4037c-0.687,0-1.2422,0.5552-1.2422,1.2422v3.2859c0,0.687,0.5552,1.2422,1.2422,1.2422
			c0.687,0,1.2422-0.5552,1.2422-1.2422v-3.2859C148.2201,47.9589,147.6649,47.4037,146.9779,47.4037z"/>
		<path class="st3" d="M24.4328,109.3884c-0.687,0-1.2439,0.5552-1.2439,1.2422v2.8661c0,0.687,0.5569,1.2422,1.2439,1.2422
			s1.2439-0.5552,1.2439-1.2422v-2.8661C25.6767,109.9436,25.1198,109.3884,24.4328,109.3884z"/>
		<path class="st3" d="M24.4328,95.124c-0.687,0-1.2439,0.5552-1.2439,1.2422v2.8661c0,0.687,0.5569,1.2422,1.2439,1.2422
			s1.2439-0.5552,1.2439-1.2422v-2.8661C25.6767,95.6792,25.1198,95.124,24.4328,95.124z"/>
		<path class="st3" d="M18.7336,103.691h-2.8678c-0.687,0-1.2439,0.5552-1.2439,1.2422c0,0.687,0.5569,1.2422,1.2439,1.2422h2.8678
			c0.687,0,1.2439-0.5552,1.2439-1.2422C19.9776,104.2462,19.4207,103.691,18.7336,103.691z"/>
		<path class="st3" d="M32.9998,103.691H30.132c-0.687,0-1.2439,0.5552-1.2439,1.2422c0,0.687,0.5569,1.2422,1.2439,1.2422h2.8678
			c0.687,0,1.2439-0.5552,1.2439-1.2422C34.2437,104.2462,33.6868,103.691,32.9998,103.691z"/>
		<path class="st3" d="M165.007,35.6341v-2.8661c0-0.687-0.5552-1.2422-1.2422-1.2422s-1.2422,0.5552-1.2422,1.2422v2.8661
			c0,0.687,0.5552,1.2422,1.2422,1.2422S165.007,36.3211,165.007,35.6341z"/>
		<path class="st3" d="M163.7648,22.6119c0.687,0,1.2422-0.5552,1.2422-1.2422v-2.8695c0-0.687-0.5552-1.2422-1.2422-1.2422
			s-1.2422,0.5552-1.2422,1.2422v2.8695C162.5226,22.0567,163.0778,22.6119,163.7648,22.6119z"/>
		<path class="st3" d="M158.0639,25.825h-2.8661c-0.687,0-1.2422,0.5552-1.2422,1.2422c0,0.687,0.5552,1.2422,1.2422,1.2422h2.8661
			c0.687,0,1.2422-0.5552,1.2422-1.2422C159.3061,26.3801,158.7509,25.825,158.0639,25.825z"/>
		<path class="st3" d="M169.4623,28.3093h2.8695c0.687,0,1.2422-0.5552,1.2422-1.2422c0-0.687-0.5552-1.2422-1.2422-1.2422h-2.8695
			c-0.687,0-1.2422,0.5552-1.2422,1.2422C168.2201,27.7542,168.7752,28.3093,169.4623,28.3093z"/>
		<path class="st3" d="M33.5098,56.2413c1.5718-2.8557,0.5239-6.4608-2.3352-8.0361c-2.8609-1.5788-6.4677-0.5239-8.0344,2.3352
			c-0.7616,1.3879-0.9386,2.984-0.4979,4.5038c0.4424,1.5163,1.4469,2.7724,2.8314,3.5323
			c0.8865,0.4892,1.8616,0.7356,2.8452,0.7356c0.5534,0,1.1103-0.0763,1.6586-0.2359
			C31.4939,58.6355,32.7499,57.6293,33.5098,56.2413z M26.6726,56.3975c-0.8033-0.4407-1.3862-1.1693-1.6412-2.0472
			c-0.255-0.8813-0.1527-1.8078,0.288-2.6093c0.6246-1.1381,1.8008-1.78,3.0118-1.78c0.5586,0,1.1225,0.1353,1.6447,0.4233
			c1.6586,0.9126,2.2658,3.0049,1.355,4.66c-0.4407,0.805-1.1676,1.3879-2.0472,1.6412
			C28.4005,56.9457,27.4793,56.8416,26.6726,56.3975z"/>
		<path class="st3" d="M172.311,92.6119c-2.8452-1.5718-6.4608-0.5274-8.0326,2.3387c-1.5718,2.8591-0.5239,6.4608,2.3317,8.0326
			c0.8883,0.4893,1.8598,0.7356,2.8452,0.7356c0.5552,0,1.1103-0.0763,1.6586-0.2359c1.5163-0.4407,2.7724-1.4469,3.5357-2.8314
			c0,0,0,0,0-0.0035C176.218,97.7923,175.1701,94.1872,172.311,92.6119z M172.4706,99.4509
			c-0.4407,0.805-1.1693,1.3879-2.0507,1.6412c-0.8709,0.2602-1.8043,0.1596-2.6093-0.288
			c-1.6551-0.9091-2.2623-3.0014-1.3532-4.6565c0.6246-1.1381,1.8008-1.78,3.0118-1.78c0.5586,0,1.1242,0.1353,1.6447,0.4233
			C172.7725,95.7035,173.3797,97.7923,172.4706,99.4509z"/>
	</g>
</g>
</svg>
