<?xml version="1.0" encoding="utf-8"?>
<!-- Generator: Adobe Illustrator 22.0.0, SVG Export Plug-In . SVG Version: 6.00 Build 0)  -->
<svg version="1.1" id="Layer_1" xmlns="http://www.w3.org/2000/svg" xmlns:xlink="http://www.w3.org/1999/xlink" x="0px" y="0px"
	 viewBox="0 0 190 140" style="enable-background:new 0 0 190 140;" xml:space="preserve">
<style type="text/css">
	.st0{fill:#003e9f;}
</style>
<g>
	<g>
		<g>
			<g>
				<path class="st0" d="M24.4296,107.633c-0.687,0-1.2422-0.5552-1.2422-1.2422v-2.866c0-0.687,0.5552-1.2422,1.2422-1.2422
					c0.687,0,1.2422,0.5552,1.2422,1.2422v2.866C25.6718,107.0779,25.1166,107.633,24.4296,107.633z"/>
			</g>
			<g>
				<path class="st0" d="M24.4296,93.3688c-0.687,0-1.2422-0.5552-1.2422-1.2422v-2.866c0-0.687,0.5552-1.2422,1.2422-1.2422
					c0.687,0,1.2422,0.5552,1.2422,1.2422v2.866C25.6718,92.8137,25.1166,93.3688,24.4296,93.3688z"/>
			</g>
			<g>
				<path class="st0" d="M18.7288,99.0696h-2.866c-0.687,0-1.2422-0.5552-1.2422-1.2422s0.5552-1.2422,1.2422-1.2422h2.866
					c0.687,0,1.2422,0.5552,1.2422,1.2422S19.4158,99.0696,18.7288,99.0696z"/>
			</g>
			<g>
				<path class="st0" d="M32.9965,99.0696h-2.866c-0.687,0-1.2422-0.5552-1.2422-1.2422s0.5552-1.2422,1.2422-1.2422h2.866
					c0.687,0,1.2422,0.5552,1.2422,1.2422S33.6835,99.0696,32.9965,99.0696z"/>
			</g>
		</g>
		<g>
			<g>
				<path class="st0" d="M163.7579,33.3246c-0.687,0-1.2422-0.5552-1.2422-1.2422v-2.866c0-0.687,0.5552-1.2422,1.2422-1.2422
					S165,28.5294,165,29.2164v2.866C165,32.7695,164.4449,33.3246,163.7579,33.3246z"/>
			</g>
			<g>
				<path class="st0" d="M163.7579,19.0604c-0.687,0-1.2422-0.5552-1.2422-1.2422v-2.8695c0-0.687,0.5552-1.2422,1.2422-1.2422
					S165,14.2618,165,14.9488v2.8695C165,18.5053,164.4449,19.0604,163.7579,19.0604z"/>
			</g>
			<g>
				<path class="st0" d="M158.0605,24.7578h-2.866c-0.687,0-1.2422-0.5552-1.2422-1.2422c0-0.687,0.5552-1.2422,1.2422-1.2422h2.866
					c0.687,0,1.2422,0.5552,1.2422,1.2422C159.3027,24.2026,158.7475,24.7578,158.0605,24.7578z"/>
			</g>
			<g>
				<path class="st0" d="M172.3247,24.7578h-2.866c-0.687,0-1.2422-0.5552-1.2422-1.2422c0-0.687,0.5552-1.2422,1.2422-1.2422h2.866
					c0.687,0,1.2422,0.5552,1.2422,1.2422C173.5669,24.2026,173.0117,24.7578,172.3247,24.7578z"/>
			</g>
		</g>
		<g>
			<path class="st0" d="M28.3158,55.7601c-0.9854,0-1.9569-0.2464-2.8452-0.7356c-2.8591-1.5683-3.9069-5.1734-2.3351-8.0325
				c1.5753-2.8591,5.1838-3.9139,8.036-2.3386c1.3879,0.7633,2.3941,2.0194,2.8348,3.5357
				c0.4407,1.5198,0.2637,3.1193-0.4996,4.5037c-0.7599,1.3844-2.0159,2.3907-3.5322,2.8313
				C29.4261,55.6838,28.8709,55.7601,28.3158,55.7601z M28.3296,46.4091c-1.2109,0-2.3907,0.6454-3.0152,1.78
				c-0.9091,1.6551-0.3019,3.7473,1.3567,4.6564c0.8085,0.4476,1.7383,0.5517,2.6093,0.288
				c0.8778-0.2533,1.6065-0.8362,2.0472-1.6412l0,0c0.4407-0.8015,0.5448-1.7279,0.288-2.6093
				c-0.2533-0.8813-0.8362-1.61-1.6412-2.0506C29.4538,46.5444,28.8883,46.4091,28.3296,46.4091z"/>
		</g>
		<g>
			<path class="st0" d="M169.4517,96.6131c-0.9854,0-1.957-0.2464-2.8452-0.7356c-2.8591-1.5683-3.9069-5.1734-2.3351-8.0325
				c1.5753-2.8626,5.1804-3.9139,8.036-2.3386c1.3879,0.7634,2.3941,2.0194,2.8348,3.5357
				c0.4407,1.5198,0.2637,3.1193-0.4996,4.5037c-0.7599,1.3844-2.0159,2.3907-3.5322,2.8313
				C170.5621,96.5367,170.0069,96.6131,169.4517,96.6131z M169.4656,87.2621c-1.2109,0-2.3907,0.6454-3.0152,1.78
				c-0.9091,1.6551-0.3019,3.7473,1.3567,4.6564c0.805,0.4476,1.7418,0.5517,2.6093,0.288
				c0.8779-0.2533,1.6065-0.8362,2.0472-1.6412l0,0c0.4407-0.8015,0.5448-1.7279,0.288-2.6093
				c-0.2533-0.8813-0.8362-1.61-1.6412-2.0506C170.5898,87.3974,170.0242,87.2621,169.4656,87.2621z"/>
		</g>
	</g>
	<path class="st0" d="M148.2053,40.2733c-0.0041-0.1789-0.0379-0.3587-0.1238-0.5296c-0.0096-0.0189-0.0271-0.0297-0.0373-0.0477
		c-0.0223-0.0397-0.0546-0.0666-0.0811-0.1037c-0.0991-0.1379-0.2164-0.2485-0.3554-0.3333
		c-0.0243-0.0147-0.0351-0.0434-0.0605-0.0566L95.5736,11.9787c-0.3609-0.1943-0.7911-0.1943-1.152,0L42.4481,39.2024
		c-0.4094,0.2117-0.6662,0.6384-0.6662,1.0999v59.3988c0,0.4615,0.2568,0.8883,0.6662,1.0999l51.9735,27.2237
		c0.0128,0.0069,0.0278,0.0037,0.0408,0.01c0.1635,0.0792,0.3411,0.1323,0.5352,0.1323c0.1941,0,0.3719-0.0531,0.5354-0.1323
		c0.0128-0.0063,0.028-0.0033,0.0406-0.01l51.9735-27.2237c0.4094-0.2117,0.6662-0.6384,0.6662-1.0999V40.3023
		C148.2133,40.2919,148.2055,40.2837,148.2053,40.2733z M94.9976,14.4838L144.2489,40.28l-32.4175,16.3029
		c-3.9469-4.9446-10.0146-8.1216-16.8331-8.1216c-6.786,0-12.8305,3.1447-16.7787,8.0485L46.0282,40.1325L94.9976,14.4838z
		 M93.7554,124.8691L44.2663,98.9482V42.0253l32.5038,16.5362c-2.0866,3.3175-3.3121,7.2314-3.3121,11.44
		c0,11.4767,8.9828,20.8303,20.2974,21.4776V124.8691z M92.0344,78.5599c-0.2325,0.2359-0.5482,0.3643-0.8778,0.3643
		s-0.6454-0.1284-0.8779-0.3643l-7.6786-7.6821c-0.4858-0.4858-0.4858-1.2734,0-1.7557c0.4858-0.4858,1.2699-0.4858,1.7557,0
		l6.8007,6.8007l14.4863-14.4793c0.4858-0.4858,1.2699-0.4858,1.7557,0c0.4858,0.4858,0.4858,1.2734,0,1.7557L92.0344,78.5599z
		 M145.729,98.9482l-49.4892,25.9208V91.4791c11.3153-0.6469,20.2987-10.0005,20.2987-21.4776
		c0-4.1756-1.2077-8.0605-3.2644-11.3615l32.4548-16.3218V98.9482z"/>
</g>
</svg>
