<?xml version="1.0" encoding="UTF-8"?>
<svg width="156px" height="141px" viewBox="0 0 156 141" version="1.1" xmlns="http://www.w3.org/2000/svg" xmlns:xlink="http://www.w3.org/1999/xlink">
    <!-- Generator: Sketch 53 (72520) - https://sketchapp.com -->
    <title>Login-595b40b65ba036ed117d449a</title>
    <desc>Created with Sketch.</desc>
    <g id="Page-1" stroke="none" stroke-width="1" fill="none" fill-rule="evenodd">
        <g id="Login-595b40b65ba036ed117d449a" transform="translate(3.000000, 0.000000)" fill-rule="nonzero">
            <path d="M94.0465232,65.5567857 L60.2975457,47.3699843 C58.323904,46.3036285 55.8855301,47.6696215 55.8855301,49.8405222 L55.8855301,61.6879411 C55.8855301,63.3095069 54.5678081,64.6255604 52.9441864,64.6255604 L2.94134369,64.6255604 C1.31772197,64.6255604 0,65.9416139 0,67.5631798 L0,73.4384185 C0,75.0599844 1.31772197,76.3760378 2.94134369,76.3760378 L52.9441864,76.3760378 C54.5678081,76.3760378 55.8855301,77.6920913 55.8855301,79.3136572 L55.8855301,91.161076 C55.8855301,93.3290391 58.323904,94.6950321 60.2946043,93.6316139 L94.0435818,75.4448125 C97.9849824,73.3238513 97.9849824,67.6777469 94.0465232,65.5567857 Z" id="Path" stroke="#003E9F" stroke-width="6"></path>
            <path d="M82.1602538,141 C49.2079653,141 20.1193945,117.796687 13,85.827875 L18.7616327,84.553 C25.290696,113.8575 51.9530054,135.125 82.1602538,135.125 C117.966794,135.125 147.096688,106.134812 147.096688,70.5 C147.096688,34.8651875 117.966794,5.875 82.1602538,5.875 C51.9530054,5.875 25.290696,27.1425 18.7616327,56.447 L13,55.172125 C20.1193945,23.2033125 49.2079653,0 82.1602538,0 C121.219519,0 153,31.6280625 153,70.5 C153,109.371938 121.219519,141 82.1602538,141 Z" id="Path" fill="#003E9F"></path>
            <path d="M81.9684232,130 C55.3953589,130 31.9716292,112.12005 25.0029516,86.52585 L30.6994987,84.9771 C36.9686522,108.0107 58.0517799,124.1 81.9684232,124.1 C111.262843,124.1 135.096842,100.27875 135.096842,71 C135.096842,41.72125 111.262843,17.9 81.9684232,17.9 C58.0517799,17.9 36.9686522,33.9893 30.6965472,57.02585 L25,55.4771 C31.9716292,29.87995 55.3983105,12 81.9684232,12 C114.518435,12 141,38.4674 141,71 C141,103.5326 114.518435,130 81.9684232,130 Z" id="Path" fill="#CCCCCB"></path>
        </g>
    </g>
</svg>