<svg width="118" height="84" viewBox="0 0 118 84" fill="none" xmlns="http://www.w3.org/2000/svg">
<path d="M98.9694 40C98.4561 40 97.9428 40.5146 97.9428 40.7719V62.6433L62.5228 81.6842V60.0702C62.5228 59.5556 62.0094 59.2982 61.4961 59.2982C60.9828 59.2982 60.4694 59.8129 60.4694 60.0702V81.6842L24.7928 62.9006V41.0292C24.7928 40.5146 24.2794 40.2573 23.7661 40.2573C23.2528 40.2573 22.9961 40.5146 22.9961 41.0292V63.4152C22.9961 63.6725 23.2528 64.1871 23.5094 64.1871L60.9828 84C60.9828 84 61.2394 84 61.4961 84C61.7528 84 61.7528 84 62.0094 84L99.4828 64.1871C99.7394 63.9298 99.9961 63.6725 99.9961 63.4152V41.0292C99.9961 40.5146 99.4828 40 98.9694 40Z" fill="#003e9f"/>
<path d="M54.2263 38.0377L60.9601 31.1698V55.2075C60.9601 55.7358 61.4781 56 61.9961 56C62.5141 56 63.0321 55.4717 63.0321 55.2075V31.1698L69.7659 38.0377C70.0249 38.3019 70.2839 38.3019 70.2839 38.3019C70.2839 38.3019 70.8018 38.3019 70.8018 38.0377C71.0608 37.7736 71.0608 36.9811 70.8018 36.717L62.5141 28.2642C62.2551 28 61.9961 28 61.9961 28C61.9961 28 61.4781 28 61.4781 28.2642L53.1903 36.717C52.9313 36.9811 52.9313 37.7736 53.1903 38.0377C53.4493 38.3019 53.9673 38.3019 54.2263 38.0377Z" fill="#003e9f"/>
<path d="M92.8778 23.1557L90.4764 24.3408C89.9961 24.5778 89.9961 25.0519 89.9961 25.5259C90.2362 25.763 90.4764 26 90.7165 26C90.9567 26 90.9567 26 91.1968 26L93.5982 24.8149C94.0785 24.3408 94.0785 23.8668 93.8384 23.3927C93.8384 22.9187 93.1179 22.9187 92.8778 23.1557Z" fill="#CCCCCB"/>
<path d="M84.8196 27L82.4667 28.25C81.9961 28.5 81.9961 29 81.9961 29.5C82.2314 29.75 82.4667 30 82.702 30C82.9373 30 82.9373 30 83.1726 30L85.5255 28.75C85.9961 28.5 85.9961 28 85.9961 27.5C85.7608 27 85.2902 27 84.8196 27Z" fill="#CCCCCB"/>
<path d="M77.5255 30.095L74.5843 31.3054C73.9961 31.5475 73.9961 32.0317 73.9961 32.5158C74.2902 32.7579 74.5843 33 74.8784 33C75.1726 33 75.1726 33 75.4667 33L78.4079 31.7896C78.9961 31.5475 78.9961 31.0633 78.9961 30.5791C78.702 30.095 78.1137 29.8529 77.5255 30.095Z" fill="#CCCCCB"/>
<path d="M99.9961 20.0181C99.9961 20.0181 99.7234 20.0181 99.9961 20.0181C99.7234 20.0181 99.7234 20.0181 99.9961 20.0181C99.7234 19.7199 99.7234 19.7199 99.7234 19.7199L98.6325 19.1235C98.087 18.8253 97.5416 19.1235 97.2688 19.4217C96.9961 19.7199 97.2688 20.3163 97.2688 20.6145C96.9961 20.9127 96.9961 21.509 96.9961 21.8072C97.2688 22.1054 97.5415 22.4036 97.8143 22.4036H98.087C98.087 22.7018 98.6325 23 98.9052 23C99.4506 23 99.9961 22.4036 99.9961 22.1054V20.6145C99.9961 20.3163 99.9961 20.3163 99.9961 20.0181Z" fill="#CCCCCB"/>
<path d="M25.5675 20.4987C25.5675 20.2207 25.5675 19.9428 25.5675 19.6649C25.139 19.109 24.7104 18.8311 24.4961 19.109L23.4247 19.9428C23.2104 19.9428 22.9961 20.2207 22.9961 20.7766V22.1662C22.9961 22.7221 23.4247 23 23.8532 23C24.2818 23 24.7104 22.4441 24.7104 22.1662L24.9247 22.4441C25.139 22.4441 25.139 22.4441 25.3532 22.4441C25.5675 22.4441 25.9961 22.1662 25.9961 21.8883C25.9961 21.3324 25.7818 20.7766 25.5675 20.4987Z" fill="#CCCCCB"/>
<path d="M40.5361 27.7405L38.2363 26.1266C37.7763 25.8038 37.3163 26.1266 37.0863 26.7722C36.8563 27.4178 37.0863 28.0633 37.5463 28.3861L39.8462 30C40.0761 30 40.0761 30 40.3061 30C40.5361 30 40.9961 29.6772 40.9961 29.3544C40.9961 28.7089 40.7661 28.0633 40.5361 27.7405Z" fill="#CCCCCB"/>
<path d="M33.4211 24.4558L30.5463 23.169C29.9713 22.9117 29.3964 22.9117 29.1089 23.4264C28.8214 23.9411 29.1089 24.4558 29.6838 24.7132L32.5587 26C32.8462 26 32.8462 26 33.1336 26C33.4211 26 33.9961 25.7426 33.9961 25.4853C33.9961 25.2279 33.7086 24.4558 33.4211 24.4558Z" fill="#CCCCCB"/>
<path d="M48.4211 31.3054L45.5463 30.095C44.9713 29.8529 44.3964 30.095 44.1089 30.5791C43.8214 31.0633 44.1089 31.5475 44.6838 31.7896L47.5587 33C47.8462 33 47.8462 33 48.1336 33C48.4211 33 48.9961 32.7579 48.9961 32.5158C48.9961 32.0317 48.9961 31.5475 48.4211 31.3054Z" fill="#CCCCCB"/>
<path d="M23.9961 33C23.4961 33 22.9961 33.5333 22.9961 33.8V36.2C22.9961 36.7333 23.4961 37 23.9961 37C24.4961 37 24.9961 36.4667 24.9961 36.2V33.8C24.7461 33.5333 24.4961 33 23.9961 33Z" fill="#CCCCCB"/>
<path d="M23.9961 26C23.4961 26 22.9961 26.5333 22.9961 26.8V29.2C22.9961 29.7333 23.4961 30 23.9961 30C24.4961 30 24.9961 29.4667 24.9961 29.2V26.8C24.7461 26.2667 24.4961 26 23.9961 26Z" fill="#CCCCCB"/>
<path d="M49.5185 6.09091L47.4289 7.30303C46.9065 7.54545 46.9065 8.0303 47.1677 8.51515C47.4289 8.75758 47.6901 9 47.9513 9C48.2125 9 48.2125 9 48.4737 9L50.5633 8.0303C51.0857 7.78788 51.0857 7.30303 50.8245 6.81818C50.3021 6.09091 49.7797 5.84848 49.5185 6.09091Z" fill="#CCCCCB"/>
<path d="M55.5185 3.1547L53.4289 4.18936C52.9065 4.44802 52.9065 4.96535 53.1677 5.48267C53.4289 5.74134 53.6901 6 53.9513 6C54.2125 6 54.2125 6 54.4737 6L56.5633 4.96535C57.0857 4.70668 57.0857 4.18936 56.8245 3.67203C56.5633 2.89604 56.0409 2.89604 55.5185 3.1547Z" fill="#CCCCCB"/>
<path d="M37.8862 13.4264C37.6207 12.9117 37.0899 12.9117 36.5591 13.169L34.4358 14.1985C33.905 14.4558 33.905 14.9706 34.1704 15.4853C34.4358 15.7426 34.7012 16 34.9667 16C35.2321 16 35.2321 16 35.4975 16L37.6207 14.9706C37.8862 14.4558 38.1516 13.9411 37.8862 13.4264Z" fill="#CCCCCB"/>
<path d="M31.3602 17.7132C31.8918 17.4558 32.1576 16.9411 31.8918 16.4264C31.626 15.9117 31.0944 15.9117 30.5628 16.169L28.4365 17.1985C27.9049 17.4558 27.9049 17.9706 28.1707 18.4853C28.4365 18.7426 28.7023 19 28.9681 19C29.2339 19 29.2339 19 29.4997 19L31.3602 17.7132Z" fill="#CCCCCB"/>
<path d="M44.8862 9.42641C44.6207 8.91169 44.0899 8.91169 43.5591 9.16905L41.4358 10.1985C40.905 10.4558 40.905 10.9706 41.1704 11.4853C41.4358 11.7426 41.7012 12 41.9667 12C42.2321 12 42.2321 12 42.4975 12L44.6208 10.9706C44.8862 10.1985 45.1516 9.68377 44.8862 9.42641Z" fill="#CCCCCB"/>
<path d="M63.3602 0.58468L62.297 0.159458C62.0313 -0.0531527 61.7655 -0.0531527 61.4997 0.159458L60.4365 0.58468C59.9049 0.797291 59.9049 1.22251 60.1707 1.64773C59.9049 2.07296 60.7023 2.07296 60.9681 1.86035L61.7655 1.64773L62.5628 1.86035C62.8286 1.86035 62.8286 1.86035 63.0944 1.86035C63.3602 1.86035 63.626 1.64773 63.8918 1.43512C64.1576 1.22251 63.8918 0.797291 63.3602 0.58468Z" fill="#CCCCCB"/>
<path d="M88.4568 13.8477L86.3929 13.0795C85.8769 12.8875 85.361 13.0795 85.103 13.2716C84.845 13.6557 85.103 14.0398 85.3609 14.2318L87.4249 15C87.6829 15 87.6829 15 87.9409 15C88.1989 15 88.4568 14.808 88.7148 14.6159C89.2308 14.4239 88.9728 14.0398 88.4568 13.8477Z" fill="#CCCCCB"/>
<path d="M81.4771 10.1602L79.4011 9.10887C78.8821 8.84604 78.3631 9.10887 78.1036 9.3717C77.8441 9.89736 78.1036 10.423 78.3631 10.6858L80.6986 12C80.9581 12 80.9581 12 81.2176 12C81.4771 12 81.7366 11.7372 81.9961 11.4743C81.9961 10.9487 81.9961 10.423 81.4771 10.1602Z" fill="#CCCCCB"/>
<path d="M69.4568 4.27159L67.3929 3.11932C66.8769 2.83125 66.3609 3.11932 66.103 3.40739C65.845 3.98352 66.103 4.55966 66.361 4.84773L68.4249 6C68.6829 6 68.6829 6 68.9409 6C69.1989 6 69.4568 5.71193 69.7148 5.42386C70.2308 5.1358 69.9728 4.55966 69.4568 4.27159Z" fill="#CCCCCB"/>
<path d="M75.0751 9C75.3449 9 75.6146 8.73717 75.8844 8.47434C76.1541 7.94868 75.8844 7.42302 75.6146 7.16019L73.4566 6.10887C72.9171 5.84604 72.3776 6.10887 72.1078 6.3717C71.8381 6.89736 72.1078 7.42302 72.3776 7.68585L74.5356 8.73717C74.8054 9 75.0751 9 75.0751 9Z" fill="#CCCCCB"/>
<path d="M94.4568 17.2716L92.3929 16.1193C91.8769 15.8313 91.3609 16.1193 91.103 16.4074C90.845 16.9835 91.103 17.5597 91.361 17.8477L93.4249 19C93.6829 19 93.6829 19 93.9409 19C94.1989 19 94.4568 18.7119 94.7148 18.4239C95.2308 18.1358 94.9728 17.5597 94.4568 17.2716Z" fill="#CCCCCB"/>
<path d="M98.9961 33C98.4961 33 97.9961 33.5333 97.9961 33.8V36.2C97.9961 36.7333 98.4961 37 98.9961 37C99.4961 37 99.9961 36.4667 99.9961 36.2V33.8C99.9961 33.5333 99.4961 33 98.9961 33Z" fill="#CCCCCB"/>
<path d="M98.9961 26C98.4961 26 97.9961 26.5333 97.9961 26.8V29.2C97.9961 29.7333 98.4961 30 98.9961 30C99.4961 30 99.9961 29.4667 99.9961 29.2V26.8C99.9961 26.2667 99.4961 26 98.9961 26Z" fill="#CCCCCB"/>
<path d="M7.99609 65C7.49609 65 6.99609 65.5714 6.99609 65.8571V68.1429C6.99609 68.7143 7.49609 69 7.99609 69C8.49609 69 8.99609 68.4286 8.99609 68.1429V66.1429C8.74609 65.5714 8.49609 65 7.99609 65Z" fill="#CCCCCB"/>
<path d="M7.99609 55C7.49609 55 6.99609 55.5714 6.99609 55.8571V58.1429C6.99609 58.7143 7.49609 59 7.99609 59C8.49609 59 8.99609 58.4286 8.99609 58.1429V55.8571C8.74609 55.2857 8.49609 55 7.99609 55Z" fill="#CCCCCB"/>
<path d="M3.99609 61H1.99609C1.49609 61 0.996094 61.5714 0.996094 62.1429C0.996094 62.7143 1.49609 63 1.99609 63H3.99609C4.49609 63 4.99609 62.4286 4.99609 62.1429C4.99609 61.8571 4.49609 61 3.99609 61Z" fill="#CCCCCB"/>
<path d="M13.9961 61H11.9961C11.4961 61 10.9961 61.5714 10.9961 62.1429C10.9961 62.7143 11.4961 63 11.9961 63H13.9961C14.4961 63 14.9961 62.4286 14.9961 62.1429C14.9961 61.8571 14.4961 61 13.9961 61Z" fill="#CCCCCB"/>
<path d="M109.996 14.3571V12.6429C109.996 12.2143 109.71 12 109.425 12C109.139 12 108.996 12.2143 108.996 12.6429V14.3571C108.996 14.7857 109.282 15 109.568 15C109.853 15 109.996 14.7857 109.996 14.3571Z" fill="#CCCCCB"/>
<path d="M109.996 5C110.496 5 110.996 4.46667 110.996 4.2V1.8C110.996 1.26667 110.496 1 109.996 1C109.496 1 108.996 1.26667 108.996 1.8V3.93333C108.996 4.46667 109.496 5 109.996 5Z" fill="#CCCCCB"/>
<path d="M105.746 8H103.246C102.621 8 101.996 8.33333 101.996 8.5C101.996 8.66667 102.621 9 103.246 9H105.746C106.371 9 106.996 8.66667 106.996 8.5C106.996 8.33333 106.371 8 105.746 8Z" fill="#CCCCCB"/>
<path d="M113.996 9H115.996C116.496 9 116.996 8.66667 116.996 8.5C116.996 8.33333 116.496 8 115.996 8H113.996C113.496 8 112.996 8.33333 112.996 8.5C112.996 8.66667 113.496 9 113.996 9Z" fill="#CCCCCB"/>
<path d="M14.5622 29.601C15.546 27.4686 14.8082 24.803 12.8407 23.4702C11.1191 22.404 8.41371 23.2037 7.42995 25.3361C6.44618 27.4686 7.184 30.1341 9.15153 31.4669C9.64342 31.7334 10.3812 32 11.1191 32C11.6109 32 11.8569 32 12.3488 31.7334C13.0866 31.4669 14.0704 30.6672 14.5622 29.601ZM9.88936 29.8676C8.65965 29.0679 8.41371 27.7351 8.90559 26.4023C9.39748 25.6027 10.1353 25.0696 10.8731 25.0696C11.365 25.0696 11.6109 25.0696 12.1028 25.3361C13.3325 26.1358 13.5785 27.4686 13.0866 28.8013C12.8407 29.3344 12.3488 29.8676 11.6109 30.1341C11.1191 30.1341 10.3812 30.1341 9.88936 29.8676Z" fill="#CCCCCB"/>
<path d="M115.644 53.418C113.496 52.4702 110.812 53.181 109.47 55.0765C108.396 56.972 109.201 59.3414 111.349 60.5261C111.886 60.7631 112.691 61 113.496 61C114.033 61 114.301 61 114.838 60.7631C115.912 60.5261 116.986 59.8153 117.523 58.8676C118.596 56.7351 117.791 54.3657 115.644 53.418ZM115.644 57.9198C115.375 58.3937 114.838 58.8676 114.033 59.1045C113.496 59.3414 112.691 59.1045 112.154 58.8676C110.812 58.1567 110.543 56.972 111.08 55.7874C111.617 55.0765 112.422 54.6027 113.228 54.6027C113.765 54.6027 114.033 54.6027 114.57 54.8396C115.912 55.5504 116.449 56.7351 115.644 57.9198Z" fill="#CCCCCB"/>
</svg>
